<svg width="25" height="25" viewBox="0 0 38 38" fill="none" xmlns="http://www.w3.org/2000/svg">
<path d="M33.883 4.32557C32.8229 3.26547 31.3851 2.66992 29.8859 2.66992C28.3867 2.66992 26.9488 3.26547 25.8887 4.32557L5.89369 24.3241C5.31059 24.9068 4.90827 25.6456 4.73513 26.4516L3.19385 33.6434C3.1532 33.8323 3.16053 34.0284 3.21517 34.2137C3.26981 34.399 3.37001 34.5677 3.50663 34.7043C3.64324 34.8409 3.81191 34.9411 3.99723 34.9957C4.18254 35.0504 4.37859 35.0577 4.56747 35.0171L11.7593 33.4758C12.5653 33.3026 13.3041 32.9003 13.8868 32.3172L33.8842 12.3199C34.944 11.2596 35.5394 9.82185 35.5394 8.32272C35.5394 6.8236 34.944 5.38584 33.8842 4.32557H33.883ZM27.5237 5.96051C28.1549 5.35757 28.9971 5.02561 29.87 5.03563C30.7429 5.04565 31.5772 5.39686 32.1945 6.01413C32.8117 6.6314 33.163 7.46571 33.173 8.33861C33.183 9.2115 32.851 10.0537 32.2481 10.6849L31.2075 11.7256L26.483 7.00229L27.5237 5.96051ZM24.8481 8.63722L29.5725 13.3617L12.2531 30.6834C11.9851 30.9513 11.6454 31.136 11.2749 31.2153L5.82778 32.3831L6.9956 26.9372C7.0749 26.5667 7.2596 26.227 7.52747 25.959L24.8458 8.63838L24.8481 8.63722Z" fill="#222222"/>
</svg>
