<svg width="66" height="66" viewBox="0 0 96 96" fill="none" xmlns="http://www.w3.org/2000/svg">
<g clip-path="url(#clip0_944_4641)">
<path fill-rule="evenodd" clip-rule="evenodd" d="M24 32C24 25.6348 26.5286 19.5303 31.0294 15.0294C35.5303 10.5286 41.6348 8 48 8C54.3652 8 60.4697 10.5286 64.9706 15.0294C69.4714 19.5303 72 25.6348 72 32H76C78.1217 32 80.1566 32.8429 81.6569 34.3431C83.1571 35.8434 84 37.8783 84 40V80C84 82.1217 83.1571 84.1566 81.6569 85.6568C80.1566 87.1571 78.1217 88 76 88H20C17.8783 88 15.8434 87.1571 14.3431 85.6568C12.8429 84.1566 12 82.1217 12 80V40C12 37.8783 12.8429 35.8434 14.3431 34.3431C15.8434 32.8429 17.8783 32 20 32H24ZM48 16C52.2435 16 56.3131 17.6857 59.3137 20.6863C62.3143 23.6869 64 27.7565 64 32H32C32 27.7565 33.6857 23.6869 36.6863 20.6863C39.6869 17.6857 43.7565 16 48 16ZM56 56C56 57.4043 55.6303 58.7838 54.9282 59.9999C54.226 61.216 53.2161 62.2259 52 62.928V68C52 69.0609 51.5786 70.0783 50.8284 70.8284C50.0783 71.5786 49.0609 72 48 72C46.9391 72 45.9217 71.5786 45.1716 70.8284C44.4214 70.0783 44 69.0609 44 68V62.928C42.475 62.0474 41.2831 60.6882 40.6092 59.0613C39.9354 57.4343 39.8172 55.6304 40.273 53.9294C40.7287 52.2284 41.733 50.7253 43.1301 49.6533C44.5272 48.5812 46.239 48.0001 48 48C50.1217 48 52.1566 48.8428 53.6569 50.3431C55.1571 51.8434 56 53.8783 56 56Z" fill="#4F5051"/>
</g>
<defs>
<clipPath id="clip0_944_4641">
<rect width="96" height="96" fill="white"/>
</clipPath>
</defs>
</svg>
