<svg width="47" height="47" viewBox="0 0 47 47" fill="none" xmlns="http://www.w3.org/2000/svg">
<path d="M17.1369 17.778C17.1369 17.5883 17.2123 17.4064 17.3464 17.2722C17.4806 17.1381 17.6625 17.0627 17.8522 17.0627H29.2967C29.4864 17.0627 29.6683 17.1381 29.8024 17.2722C29.9366 17.4064 30.0119 17.5883 30.0119 17.778C30.0119 17.9677 29.9366 18.1496 29.8024 18.2838C29.6683 18.4179 29.4864 18.4933 29.2967 18.4933H17.8522C17.6625 18.4933 17.4806 18.4179 17.3464 18.2838C17.2123 18.1496 17.1369 17.9677 17.1369 17.778ZM17.8522 24.2155H29.2967C29.4864 24.2155 29.6683 24.1401 29.8024 24.006C29.9366 23.8719 30.0119 23.6899 30.0119 23.5002C30.0119 23.3105 29.9366 23.1286 29.8024 22.9944C29.6683 22.8603 29.4864 22.7849 29.2967 22.7849H17.8522C17.6625 22.7849 17.4806 22.8603 17.3464 22.9944C17.2123 23.1286 17.1369 23.3105 17.1369 23.5002C17.1369 23.6899 17.2123 23.8719 17.3464 24.006C17.4806 24.1401 17.6625 24.2155 17.8522 24.2155ZM23.5744 28.5072H17.8522C17.6625 28.5072 17.4806 28.5825 17.3464 28.7167C17.2123 28.8508 17.1369 29.0327 17.1369 29.2224C17.1369 29.4121 17.2123 29.5941 17.3464 29.7282C17.4806 29.8624 17.6625 29.9377 17.8522 29.9377H23.5744C23.7641 29.9377 23.9461 29.8624 24.0802 29.7282C24.2144 29.5941 24.2897 29.4121 24.2897 29.2224C24.2897 29.0327 24.2144 28.8508 24.0802 28.7167C23.9461 28.5825 23.7641 28.5072 23.5744 28.5072ZM40.0258 9.19466V28.6306C40.0266 28.9124 39.9713 29.1916 39.8632 29.4519C39.7552 29.7122 39.5965 29.9485 39.3964 30.1469L30.2212 39.324C30.0224 39.5235 29.786 39.6817 29.5257 39.7894C29.2655 39.8972 28.9864 39.9523 28.7048 39.9516H9.26888C8.69977 39.9516 8.15397 39.7255 7.75155 39.3231C7.34912 38.9207 7.12305 38.3749 7.12305 37.8058V9.19466C7.12305 8.62555 7.34912 8.07975 7.75155 7.67733C8.15397 7.27491 8.69977 7.04883 9.26888 7.04883H37.88C38.4491 7.04883 38.9949 7.27491 39.3973 7.67733C39.7997 8.07975 40.0258 8.62555 40.0258 9.19466ZM9.26888 38.5211H28.5814V29.2224C28.5814 29.0327 28.6567 28.8508 28.7909 28.7167C28.925 28.5825 29.107 28.5072 29.2967 28.5072H38.5953V9.19466C38.5953 9.00496 38.5199 8.82302 38.3858 8.68888C38.2516 8.55474 38.0697 8.47938 37.88 8.47938H9.26888C9.07918 8.47938 8.89724 8.55474 8.7631 8.68888C8.62896 8.82302 8.5536 9.00496 8.5536 9.19466V37.8058C8.5536 37.9955 8.62896 38.1774 8.7631 38.3116C8.89724 38.4457 9.07918 38.5211 9.26888 38.5211ZM37.5849 29.9377H30.0119V37.5107L37.5849 29.9377Z" fill="white"/>
</svg>
