<svg width="45" height="33" viewBox="0 0 45 33" fill="none" xmlns="http://www.w3.org/2000/svg">
<path fill-rule="evenodd" clip-rule="evenodd" d="M18.7065 2.96149C17.5794 2.96149 16.4965 3.4 15.687 4.18424L3.36989 16.1164C3.17431 16.3059 3.17431 16.6196 3.36989 16.8091L15.687 28.7413C16.4965 29.5255 17.5794 29.964 18.7065 29.964H37.5797C39.9764 29.964 41.9194 28.0211 41.9194 25.6243V7.30118C41.9194 4.90444 39.9764 2.96149 37.5797 2.96149H18.7065ZM13.674 2.10628C15.0232 0.799218 16.828 0.0683594 18.7065 0.0683594H37.5797C41.5743 0.0683594 44.8125 3.30661 44.8125 7.30118V25.6243C44.8125 29.6189 41.5743 32.8572 37.5797 32.8572H18.7065C16.828 32.8572 15.0232 32.1263 13.674 30.8192L1.35687 18.887C-0.0121843 17.5608 -0.0121847 15.3647 1.35687 14.0385L13.674 2.10628ZM20.1624 9.17144C20.7273 8.60652 21.6432 8.60652 22.2082 9.17144L27.4537 14.417L32.6993 9.17144C33.2642 8.60652 34.1801 8.60652 34.7451 9.17144C35.31 9.73636 35.31 10.6523 34.7451 11.2172L29.4995 16.4628L34.7451 21.7083C35.31 22.2733 35.31 23.1892 34.7451 23.7541C34.1801 24.319 33.2642 24.319 32.6993 23.7541L27.4537 18.5085L22.2082 23.7541C21.6432 24.319 20.7273 24.319 20.1624 23.7541C19.5975 23.1892 19.5975 22.2733 20.1624 21.7083L25.408 16.4628L20.1624 11.2172C19.5975 10.6523 19.5975 9.73636 20.1624 9.17144Z" fill="black"/>
</svg>
