<svg width="23" height="21" viewBox="0 0 43 41" fill="none" xmlns="http://www.w3.org/2000/svg">
<path fill-rule="evenodd" clip-rule="evenodd" d="M9.96363 16.3846V14.2094C9.96363 11.221 11.1973 8.3549 13.3934 6.24174C15.5894 4.12857 18.5679 2.94141 21.6735 2.94141C24.7792 2.94141 27.7577 4.12857 29.9537 6.24174C32.1497 8.3549 33.3835 11.221 33.3835 14.2094V16.3846C33.7773 16.4113 34.1468 16.4447 34.4972 16.4914C36.0585 16.6917 37.3735 17.1258 38.4179 18.129C39.4622 19.134 39.9098 20.3993 40.1214 21.9018C40.3227 23.3491 40.3227 25.1903 40.3227 27.4723V27.656C40.3227 29.9379 40.3227 31.7792 40.1214 33.2265C39.9098 34.729 39.4622 35.9943 38.4179 36.9992C37.3735 38.0042 36.0585 38.4349 34.4972 38.6385C32.9931 38.8322 31.0796 38.8322 28.7082 38.8322H14.6389C12.2674 38.8322 10.354 38.8322 8.84988 38.6385C7.28856 38.4349 5.97358 38.0042 4.92923 36.9992C3.88488 35.9943 3.4373 34.729 3.22739 33.2265C3.02441 31.7792 3.02441 29.9379 3.02441 27.656V27.4723C3.02441 25.1903 3.02441 23.3491 3.22739 21.9018C3.43556 20.3993 3.88661 19.134 4.92923 18.129C5.97358 17.1241 7.28856 16.6934 8.84988 16.4914C9.21977 16.4438 9.59123 16.4081 9.96363 16.3846ZM12.5658 14.2094C12.5658 11.8851 13.5254 9.65591 15.2334 8.01234C16.9414 6.36876 19.258 5.44541 21.6735 5.44541C24.0891 5.44541 26.4056 6.36876 28.1137 8.01234C29.8217 9.65591 30.7813 11.8851 30.7813 14.2094V16.3011C30.1342 16.2961 29.442 16.2961 28.7082 16.2961H14.6389C13.9051 16.2961 13.2146 16.2961 12.5658 16.3011V14.2094ZM6.76985 19.9002C7.25039 19.4378 7.9235 19.1373 9.19858 18.9721C10.5066 18.8035 12.2449 18.8001 14.7343 18.8001H28.6128C31.1022 18.8001 32.8387 18.8035 34.1502 18.9721C35.4236 19.1373 36.0967 19.4395 36.5772 19.9002C37.0578 20.3626 37.37 21.0103 37.5418 22.2373C37.717 23.4976 37.7205 25.1686 37.7205 27.5641C37.7205 29.9597 37.717 31.6307 37.5418 32.8927C37.37 34.118 37.056 34.7657 36.5772 35.2281C36.0967 35.6905 35.4236 35.991 34.1485 36.1562C32.8387 36.3248 31.1022 36.3282 28.6128 36.3282H14.7343C12.2449 36.3282 10.5066 36.3248 9.19684 36.1562C7.9235 35.991 7.25039 35.6888 6.76985 35.2281C6.28931 34.7657 5.97705 34.118 5.8053 32.891C5.63009 31.6307 5.62662 29.9597 5.62662 27.5641C5.62662 25.1686 5.63009 23.496 5.8053 22.2356C5.97705 21.0103 6.29105 20.3626 6.76985 19.9002Z" fill="#777070"/>
</svg>
